<svg xmlns="http://www.w3.org/2000/svg" version="1.1" xlink="http://www.w3.org/1999/xlink" xmlns:svgjs="http://svgjs.com/svgjs" width="100%" height="100%" preserveAspectRatio="xMidYMid meet" viewBox="0 0 300 80.77247619628906" overflow="visible"><defs id="SvgjsDefs116582"></defs><g id="SvgjsG116583" transform="scale(0.6493506493506493)" opacity="1"><g id="SvgjsG116584" class="A_xzonoW1" transform="translate(0, 0) scale(1)" light-content="false" fill="#333333"><path d="M0 0 h 462 v 4 h -462 Z M0 0 h 4 v 124.38461538461537 h -4 Z M462 124.38461538461537 h -13.860000000000012 v -4 h 13.860000000000012 ZM184.8 124.38461538461537 h -184.8 v -4 h 184.8 Z M462 124.38461538461537 h -4 v -124.38461538461537 h 4 Z" fill-rule="nonzero"></path></g><g id="SvgjsG116585" class="QL7AbPO9w" transform="translate(15.84927382009222, 19.617185333489065) scale(0.8653494192491534)" light-content="false" non-strokable="false" fill="#3b3b3b"><path d="M78.001 44.011c-.399-.23-.729-.798-.729-1.261V26.522c0-.461-.326-1.028-.726-1.258l-16.965-9.795c-.399-.231-1.053-.231-1.454 0l-14.054 8.114c-.398.23-1.053.23-1.453 0l-14.056-8.114c-.397-.23-1.053-.23-1.453 0l-16.965 9.795c-.398.23-.727.797-.727 1.258v19.59c0 .462.328 1.03.727 1.26l14.056 8.114c.4.23.728.798.728 1.259v16.227c0 .461.326 1.029.727 1.259l16.964 9.796c.4.23 1.055.23 1.453 0l14.056-8.115c.399-.229 1.054-.229 1.454 0l14.054 8.115c.399.23 1.054.23 1.454 0l16.963-9.796c.4-.23.727-.798.727-1.259V53.384c0-.462-.326-1.029-.727-1.26l-14.054-8.113zm-18.417 6.433c-.4.231-1.055.231-1.454 0l-8.232-4.753c-.398-.23-.398-.609 0-.839l8.236-4.757c.398-.23 1.053-.23 1.454 0l8.228 4.755c.399.231.399.609 0 .84l-8.232 4.754zm-16.963-1.393c.4-.23 1.055-.23 1.453.002l8.233 4.751c.399.232.399.61 0 .84L44.07 59.4c-.398.23-1.054.23-1.455 0l-8.227-4.754c-.4-.231-.4-.609 0-.841l8.233-4.754zm-15.509-26.86c.4-.23 1.056-.23 1.453 0l8.234 4.752c.398.231.398.61 0 .841l-8.236 4.754c-.399.231-1.054.231-1.453 0l-8.23-4.753c-.399-.231-.399-.609 0-.84l8.232-4.754zM15.241 33.248c0-.462.328-.651.729-.42l11.138 6.434c.4.231 1.055.231 1.454.001l29.566-17.072c.401-.23 1.055-.23 1.454 0l11.145 6.434c.397.229.726.796.726 1.259v9.503c0 .461-.327.651-.726.419l-11.139-6.434c-.401-.231-1.055-.231-1.454-.001L28.565 50.444c-.397.231-1.053.231-1.453 0L15.97 44.011c-.4-.23-.729-.797-.729-1.26v-9.503zm16.238 37.624c-.4-.23-.727-.797-.727-1.261v-9.503c0-.462.326-.65.727-.418l11.137 6.433c.401.232 1.057.232 1.455 0l29.567-17.072c.399-.23 1.054-.23 1.454 0l11.143 6.433c.4.23.727.798.727 1.26v9.505c0 .461-.326.65-.727.419l-11.139-6.434c-.4-.231-1.054-.231-1.453-.001L44.074 77.305c-.398.231-1.053.231-1.453 0l-11.142-6.433zm33.924 1.68c-.401-.23-.401-.608 0-.838l8.237-4.758c.401-.23 1.055-.23 1.455.001l8.229 4.754c.401.23.401.609 0 .84l-8.233 4.754c-.4.231-1.055.231-1.454 0l-8.234-4.753z"></path></g><g id="SvgjsG116586" class="text" transform="translate(284.95663260093096, 83.26600100704277) scale(1)" light-content="false" fill="#3b3b3b"><path d="M-122.3 -41.63C-124.22 -42 -126.51 -42.19 -129.16 -42.19C-133.76 -42.19 -137.91 -41.3 -141.6 -39.51C-145.29 -37.71 -148.18 -35.2 -150.26 -31.98C-152.34 -28.75 -153.38 -25.05 -153.38 -20.9C-153.38 -16.65 -152.35 -12.88 -150.29 -9.59C-148.24 -6.29 -145.38 -3.73 -141.73 -1.89C-138.09 -0.06 -133.94 0.86 -129.3 0.86C-126.77 0.86 -124.5 0.65 -122.46 0.23C-120.43 -0.19 -118.28 -0.93 -116.03 -1.99C-115.72 -2.17 -115.53 -2.33 -115.46 -2.49C-115.4 -2.64 -115.32 -2.99 -115.23 -3.52L-114.57 -10.95C-114.57 -11.03 -114.68 -11.1 -114.9 -11.15C-115.12 -11.19 -115.25 -11.15 -115.3 -11.01C-116.62 -7.34 -118.4 -4.63 -120.64 -2.89C-122.87 -1.14 -125.74 -0.27 -129.23 -0.27C-132.59 -0.27 -135.69 -1.17 -138.52 -2.99C-141.35 -4.8 -143.59 -7.3 -145.25 -10.48C-146.91 -13.67 -147.74 -17.2 -147.74 -21.1C-147.74 -25.12 -146.97 -28.65 -145.45 -31.68C-143.92 -34.71 -141.79 -37.04 -139.05 -38.68C-136.31 -40.31 -133.14 -41.13 -129.56 -41.13C-122.57 -41.13 -118 -37.44 -115.83 -30.05C-115.78 -29.87 -115.64 -29.81 -115.4 -29.85C-115.15 -29.9 -115.03 -29.99 -115.03 -30.12L-115.89 -38.21C-115.94 -38.74 -115.99 -39.08 -116.06 -39.24C-116.13 -39.39 -116.32 -39.56 -116.62 -39.74C-118.48 -40.62 -120.37 -41.25 -122.3 -41.63Z M-97.88 -2.09C-94.68 -0.17 -91.02 0.8 -86.9 0.8C-82.75 0.8 -78.89 -0.18 -75.33 -2.12C-71.77 -4.07 -68.93 -6.72 -66.8 -10.08C-64.68 -13.44 -63.62 -17.14 -63.62 -21.16C-63.62 -24.79 -64.47 -28.22 -66.17 -31.44C-67.88 -34.67 -70.32 -37.27 -73.5 -39.24C-76.69 -41.21 -80.38 -42.19 -84.58 -42.19C-88.34 -42.19 -92.02 -41.37 -95.63 -39.74C-99.23 -38.1 -102.18 -35.66 -104.48 -32.41C-106.78 -29.16 -107.93 -25.25 -107.93 -20.7C-107.93 -16.81 -107.06 -13.21 -105.31 -9.92C-103.57 -6.62 -101.09 -4.01 -97.88 -2.09ZM-76.72 -2.85C-79.04 -1.39 -81.66 -0.66 -84.58 -0.66C-88.03 -0.66 -91.11 -1.65 -93.8 -3.62C-96.5 -5.58 -98.6 -8.27 -100.11 -11.68C-101.61 -15.08 -102.36 -18.86 -102.36 -23.02C-102.36 -28.5 -101.03 -32.8 -98.38 -35.92C-95.73 -39.04 -92.03 -40.6 -87.3 -40.6C-83.68 -40.6 -80.49 -39.69 -77.75 -37.88C-75.01 -36.07 -72.9 -33.55 -71.41 -30.32C-69.93 -27.09 -69.19 -23.42 -69.19 -19.3C-69.19 -15.41 -69.87 -12.06 -71.22 -9.25C-72.56 -6.45 -74.4 -4.31 -76.72 -2.85Z M-29.49 -19.8C-31.63 -21.86 -34.47 -23.04 -38.01 -23.35C-35.58 -24.28 -33.68 -25.57 -32.31 -27.23C-30.94 -28.89 -30.25 -30.78 -30.25 -32.9C-30.25 -35.56 -31.2 -37.68 -33.1 -39.27C-35.01 -40.87 -37.86 -41.66 -41.66 -41.66C-42.9 -41.66 -44.2 -41.59 -45.58 -41.46C-46.06 -41.42 -46.65 -41.37 -47.33 -41.33C-48.02 -41.29 -48.76 -41.26 -49.56 -41.26C-50.75 -41.26 -52.28 -41.31 -54.13 -41.4L-57.38 -41.46C-57.52 -41.46 -57.58 -41.33 -57.58 -41.06C-57.58 -40.8 -57.52 -40.67 -57.38 -40.67C-55.79 -40.67 -54.62 -40.54 -53.87 -40.3C-53.12 -40.06 -52.61 -39.63 -52.34 -39.01C-52.08 -38.39 -51.94 -37.42 -51.94 -36.09L-51.94 -5.37C-51.94 -4.05 -52.09 -3.07 -52.37 -2.45C-52.66 -1.84 -53.19 -1.4 -53.97 -1.16C-54.74 -0.92 -55.92 -0.8 -57.52 -0.8C-57.6 -0.8 -57.65 -0.66 -57.65 -0.4C-57.65 -0.13 -57.6 0 -57.52 0C-56.1 0 -54.97 -0.02 -54.13 -0.07L-49.56 -0.13C-48.49 -0.13 -47.54 -0.11 -46.7 -0.07C-45.86 -0.02 -45.13 0.02 -44.51 0.07C-42.83 0.2 -41.29 0.27 -39.87 0.27C-37.3 0.27 -34.99 -0.28 -32.94 -1.36C-30.88 -2.44 -29.26 -3.94 -28.06 -5.84C-26.87 -7.74 -26.27 -9.86 -26.27 -12.21C-26.27 -15.21 -27.34 -17.75 -29.49 -19.8ZM-45.48 -40.3C-44.92 -40.5 -44.09 -40.6 -42.99 -40.6C-40.29 -40.6 -38.3 -39.86 -37.02 -38.38C-35.73 -36.9 -35.09 -34.92 -35.09 -32.44C-35.09 -29.7 -35.83 -27.49 -37.32 -25.81C-38.8 -24.13 -41.06 -23.29 -44.12 -23.29L-47.1 -23.35L-47.1 -35.96C-47.1 -37.33 -46.97 -38.34 -46.7 -39.01C-46.44 -39.67 -46.03 -40.1 -45.48 -40.3ZM-33.77 -3.48C-35.31 -1.82 -37.68 -1 -40.87 -1C-42.59 -1 -43.89 -1.14 -44.78 -1.43C-45.66 -1.71 -46.27 -2.17 -46.6 -2.79C-46.94 -3.41 -47.1 -4.27 -47.1 -5.37L-47.1 -21.69C-45.15 -21.83 -43.56 -21.87 -42.32 -21.83C-38.92 -21.78 -36.25 -20.73 -34.33 -18.67C-32.41 -16.62 -31.44 -13.91 -31.44 -10.55C-31.44 -7.5 -32.22 -5.14 -33.77 -3.48Z M22.89 -0.4C22.89 -0.66 22.82 -0.8 22.69 -0.8C20.83 -0.8 18.92 -1.47 16.95 -2.82C14.98 -4.17 12.75 -6.35 10.25 -9.35C7.75 -12.36 4.64 -16.54 0.93 -21.89C3.23 -23 5.07 -24.52 6.47 -26.47C7.86 -28.42 8.56 -30.58 8.56 -32.97C8.56 -35.62 7.57 -37.74 5.61 -39.31C3.64 -40.88 0.88 -41.66 -2.65 -41.66C-4.07 -41.66 -5.59 -41.59 -7.23 -41.46C-7.85 -41.42 -8.58 -41.37 -9.42 -41.33C-10.26 -41.29 -11.15 -41.26 -12.07 -41.26C-13.27 -41.26 -14.79 -41.31 -16.65 -41.4L-19.9 -41.46C-20.03 -41.46 -20.1 -41.33 -20.1 -41.06C-20.1 -40.8 -20.03 -40.67 -19.9 -40.67C-18.31 -40.67 -17.14 -40.54 -16.39 -40.3C-15.63 -40.06 -15.13 -39.63 -14.86 -39.01C-14.59 -38.39 -14.46 -37.42 -14.46 -36.09L-14.46 -5.37C-14.46 -4.05 -14.61 -3.06 -14.89 -2.42C-15.18 -1.78 -15.7 -1.35 -16.45 -1.13C-17.2 -0.91 -18.4 -0.8 -20.03 -0.8C-20.12 -0.8 -20.17 -0.66 -20.17 -0.4C-20.17 -0.13 -20.12 0 -20.03 0C-18.62 0 -17.49 -0.02 -16.65 -0.07L-12.07 -0.13L-7.36 -0.07C-6.61 -0.02 -5.53 0 -4.11 0C-3.98 0 -3.91 -0.13 -3.91 -0.4C-3.91 -0.66 -3.98 -0.8 -4.11 -0.8C-5.75 -0.8 -6.94 -0.91 -7.7 -1.13C-8.45 -1.35 -8.96 -1.77 -9.22 -2.39C-9.49 -3.01 -9.62 -4 -9.62 -5.37L-9.62 -20.37C-7.76 -20.23 -6.72 -20.17 -6.5 -20.17C-5.48 -20.17 -4.38 -20.28 -3.18 -20.5C1.06 -14.04 4.65 -9.01 7.6 -5.41C10.54 -1.8 12.54 0 13.6 0L22.69 0C22.82 0 22.89 -0.13 22.89 -0.4ZM-5.71 -21.76C-7.08 -21.76 -8.38 -21.83 -9.62 -21.96L-9.62 -35.96C-9.62 -37.77 -9.28 -39 -8.59 -39.64C-7.91 -40.28 -6.7 -40.6 -4.98 -40.6C-2.23 -40.6 -0.13 -39.86 1.33 -38.38C2.79 -36.9 3.52 -34.41 3.52 -30.91C3.52 -27.77 2.81 -25.46 1.39 -23.98C-0.02 -22.5 -2.39 -21.76 -5.71 -21.76Z M68.93 -0.4C68.93 -0.66 68.84 -0.8 68.66 -0.8C67.29 -0.8 66.07 -1.37 65.01 -2.52C63.95 -3.67 62.67 -5.86 61.16 -9.09L45.38 -41.99C45.33 -42.13 45.18 -42.19 44.91 -42.19C44.65 -42.19 44.47 -42.13 44.38 -41.99L30.38 -9.22C29.41 -6.92 28.53 -5.17 27.73 -3.98C26.93 -2.79 26.1 -1.96 25.24 -1.49C24.38 -1.03 23.33 -0.8 22.09 -0.8C21.87 -0.8 21.76 -0.66 21.76 -0.4C21.76 -0.13 21.87 0 22.09 0C23.02 0 24.15 -0.04 25.47 -0.13C27.07 -0.22 28.42 -0.27 29.52 -0.27C30.76 -0.27 32.22 -0.22 33.9 -0.13C35.4 -0.04 36.55 0 37.35 0C37.57 0 37.68 -0.13 37.68 -0.4C37.68 -0.66 37.57 -0.8 37.35 -0.8C33.06 -0.8 30.91 -2.19 30.91 -4.98C30.91 -6.08 31.2 -7.3 31.78 -8.62L35.69 -17.71L51.55 -17.71L57.25 -5.77C57.87 -4.44 58.18 -3.45 58.18 -2.79C58.18 -2.03 57.84 -1.51 57.15 -1.23C56.47 -0.94 55.33 -0.8 53.73 -0.8C53.56 -0.8 53.47 -0.66 53.47 -0.4C53.47 -0.13 53.56 0 53.73 0C54.53 0 55.64 -0.04 57.05 -0.13C58.56 -0.22 59.82 -0.27 60.83 -0.27C61.67 -0.27 62.98 -0.22 64.75 -0.13C66.52 -0.04 67.82 0 68.66 0C68.84 0 68.93 -0.13 68.93 -0.4ZM36.29 -19.11L43.19 -35.16L50.88 -19.11Z M80.01 -29.45C79.16 -30.74 78.74 -32.22 78.74 -33.9C78.74 -35.98 79.35 -37.7 80.57 -39.07C81.79 -40.44 83.57 -41.13 85.91 -41.13C88.83 -41.13 91.06 -40.09 92.61 -38.01C94.16 -35.93 95.15 -33.72 95.6 -31.38C95.64 -31.2 95.78 -31.14 96.03 -31.18C96.27 -31.22 96.39 -31.33 96.39 -31.51L95.99 -39.47C95.99 -39.96 95.66 -40.36 95 -40.67C92.48 -41.68 89.85 -42.19 87.1 -42.19C84.94 -42.19 82.88 -41.8 80.93 -41.03C78.99 -40.26 77.42 -39.09 76.22 -37.51C75.03 -35.94 74.43 -34.03 74.43 -31.78C74.43 -29.87 74.85 -28.23 75.69 -26.83C76.53 -25.44 77.55 -24.29 78.74 -23.38C79.94 -22.48 81.62 -21.34 83.79 -19.97C85.95 -18.69 87.67 -17.55 88.93 -16.55C90.19 -15.56 91.26 -14.34 92.15 -12.9C93.03 -11.47 93.47 -9.75 93.47 -7.76C93.47 -5.15 92.74 -3.27 91.28 -2.12C89.82 -0.97 88.01 -0.4 85.84 -0.4C82.7 -0.4 80.18 -1.56 78.28 -3.88C76.38 -6.2 74.99 -9 74.1 -12.27C74.06 -12.45 73.91 -12.52 73.67 -12.47C73.43 -12.43 73.33 -12.32 73.37 -12.14L74.1 -2.85C74.15 -2.5 74.21 -2.23 74.3 -2.06C74.39 -1.88 74.54 -1.72 74.76 -1.59C77.55 0 80.74 0.8 84.32 0.8C87.15 0.8 89.6 0.3 91.68 -0.7C93.76 -1.69 95.34 -3.05 96.42 -4.78C97.51 -6.5 98.05 -8.45 98.05 -10.61C98.05 -12.6 97.6 -14.33 96.69 -15.79C95.78 -17.25 94.69 -18.46 93.41 -19.44C92.12 -20.41 90.35 -21.58 88.1 -22.95C85.93 -24.24 84.25 -25.32 83.06 -26.2C81.86 -27.09 80.85 -28.17 80.01 -29.45Z M115.56 -2.39C115.3 -3.01 115.17 -4 115.17 -5.37L115.17 -35.96C115.17 -37.28 115.3 -38.27 115.56 -38.91C115.83 -39.55 116.35 -40 117.12 -40.27C117.9 -40.53 119.08 -40.67 120.67 -40.67C120.76 -40.67 120.8 -40.8 120.8 -41.06C120.8 -41.33 120.76 -41.46 120.67 -41.46L117.49 -41.4C115.54 -41.31 113.93 -41.26 112.64 -41.26C111.45 -41.26 109.92 -41.31 108.07 -41.4L104.68 -41.46C104.55 -41.46 104.48 -41.33 104.48 -41.06C104.48 -40.8 104.55 -40.67 104.68 -40.67C106.32 -40.67 107.51 -40.54 108.27 -40.3C109.02 -40.06 109.54 -39.63 109.82 -39.01C110.11 -38.39 110.26 -37.42 110.26 -36.09L110.26 -5.37C110.26 -4.05 110.11 -3.06 109.82 -2.42C109.54 -1.78 109.02 -1.35 108.27 -1.13C107.51 -0.91 106.32 -0.8 104.68 -0.8C104.55 -0.8 104.48 -0.66 104.48 -0.4C104.48 -0.13 104.55 0 104.68 0C106.1 0 107.23 -0.02 108.07 -0.07L112.64 -0.13L117.42 -0.07C118.22 -0.02 119.3 0 120.67 0C120.76 0 120.8 -0.13 120.8 -0.4C120.8 -0.66 120.76 -0.8 120.67 -0.8C119.03 -0.8 117.84 -0.91 117.09 -1.13C116.34 -1.35 115.83 -1.77 115.56 -2.39Z M135 -29.45C134.16 -30.74 133.74 -32.22 133.74 -33.9C133.74 -35.98 134.35 -37.7 135.56 -39.07C136.78 -40.44 138.56 -41.13 140.9 -41.13C143.82 -41.13 146.06 -40.09 147.61 -38.01C149.15 -35.93 150.15 -33.72 150.59 -31.38C150.63 -31.2 150.78 -31.14 151.02 -31.18C151.26 -31.22 151.39 -31.33 151.39 -31.51L150.99 -39.47C150.99 -39.96 150.66 -40.36 149.99 -40.67C147.47 -41.68 144.84 -42.19 142.1 -42.19C139.93 -42.19 137.88 -41.8 135.93 -41.03C133.98 -40.26 132.41 -39.09 131.22 -37.51C130.03 -35.94 129.43 -34.03 129.43 -31.78C129.43 -29.87 129.85 -28.23 130.69 -26.83C131.53 -25.44 132.55 -24.29 133.74 -23.38C134.93 -22.48 136.61 -21.34 138.78 -19.97C140.95 -18.69 142.66 -17.55 143.92 -16.55C145.18 -15.56 146.26 -14.34 147.14 -12.9C148.03 -11.47 148.47 -9.75 148.47 -7.76C148.47 -5.15 147.74 -3.27 146.28 -2.12C144.82 -0.97 143.01 -0.4 140.84 -0.4C137.7 -0.4 135.18 -1.56 133.28 -3.88C131.37 -6.2 129.98 -9 129.1 -12.27C129.05 -12.45 128.91 -12.52 128.67 -12.47C128.42 -12.43 128.32 -12.32 128.37 -12.14L129.1 -2.85C129.14 -2.5 129.21 -2.23 129.3 -2.06C129.38 -1.88 129.54 -1.72 129.76 -1.59C132.55 0 135.73 0.8 139.31 0.8C142.14 0.8 144.6 0.3 146.68 -0.7C148.75 -1.69 150.34 -3.05 151.42 -4.78C152.5 -6.5 153.04 -8.45 153.04 -10.61C153.04 -12.6 152.59 -14.33 151.68 -15.79C150.78 -17.25 149.68 -18.46 148.4 -19.44C147.12 -20.41 145.35 -21.58 143.09 -22.95C140.93 -24.24 139.25 -25.32 138.05 -26.2C136.86 -27.09 135.84 -28.17 135 -29.45Z"></path></g><g id="SvgjsG116587" class="text" transform="translate(315.8549903361001, 124.09961453902417) scale(1)" light-content="false" fill="#000000"><path d="M-112.72 0L-110.17 0L-110.17 -0.04C-110.21 -0.07 -110.26 -0.16 -110.35 -0.3C-110.44 -0.43 -110.54 -0.6 -110.65 -0.8C-110.76 -1 -110.88 -1.22 -111.01 -1.47C-111.13 -1.72 -111.25 -1.98 -111.37 -2.25L-116.41 -13.58L-117.15 -13.58L-122.47 -1.79C-122.67 -1.34 -122.85 -0.96 -123.01 -0.66C-123.18 -0.36 -123.32 -0.15 -123.43 -0.04L-123.43 0L-121.54 0L-121.54 -0.04C-121.55 -0.06 -121.56 -0.09 -121.58 -0.14C-121.59 -0.2 -121.6 -0.26 -121.6 -0.34C-121.6 -0.62 -121.54 -0.9 -121.44 -1.17C-121.33 -1.44 -121.23 -1.69 -121.14 -1.92L-120.07 -4.37C-119.71 -4.38 -119.3 -4.39 -118.84 -4.39L-117.43 -4.39L-115.57 -4.39C-114.99 -4.39 -114.53 -4.38 -114.18 -4.37L-113.06 -1.85C-112.91 -1.5 -112.81 -1.21 -112.76 -0.98C-112.71 -0.75 -112.68 -0.53 -112.68 -0.34C-112.68 -0.29 -112.68 -0.24 -112.69 -0.18C-112.7 -0.11 -112.7 -0.07 -112.72 -0.04ZM-118.73 -5.19L-119.73 -5.19L-117.17 -11.11L-114.56 -5.22C-114.84 -5.22 -115.14 -5.21 -115.47 -5.21C-115.81 -5.21 -116.15 -5.2 -116.52 -5.2C-116.88 -5.2 -117.25 -5.19 -117.62 -5.19C-118 -5.19 -118.37 -5.19 -118.73 -5.19Z M-102.84 -7.64L-102.93 -9.18C-103.11 -9.27 -103.37 -9.38 -103.72 -9.49C-104.06 -9.59 -104.49 -9.65 -105 -9.65C-105.39 -9.65 -105.75 -9.59 -106.08 -9.47C-106.4 -9.35 -106.69 -9.19 -106.93 -8.98C-107.16 -8.76 -107.35 -8.51 -107.48 -8.21C-107.61 -7.91 -107.68 -7.58 -107.68 -7.22C-107.68 -6.78 -107.59 -6.39 -107.41 -6.04C-107.23 -5.7 -106.99 -5.39 -106.72 -5.1C-106.44 -4.81 -106.14 -4.54 -105.82 -4.29C-105.5 -4.03 -105.2 -3.78 -104.93 -3.53C-104.65 -3.27 -104.42 -3.01 -104.23 -2.73C-104.05 -2.46 -103.96 -2.16 -103.96 -1.83C-103.96 -1.42 -104.1 -1.09 -104.36 -0.83C-104.63 -0.58 -105 -0.45 -105.45 -0.45C-105.73 -0.45 -105.99 -0.5 -106.22 -0.6C-106.46 -0.69 -106.67 -0.83 -106.85 -1C-107.03 -1.17 -107.19 -1.37 -107.31 -1.61C-107.43 -1.86 -107.53 -2.12 -107.59 -2.41L-107.74 -2.41L-107.83 -0.65C-107.7 -0.56 -107.55 -0.46 -107.38 -0.36C-107.21 -0.26 -107.02 -0.16 -106.8 -0.08C-106.59 0 -106.36 0.07 -106.1 0.13C-105.84 0.19 -105.57 0.21 -105.27 0.21C-104.77 0.21 -104.34 0.14 -103.97 0C-103.61 -0.15 -103.32 -0.34 -103.08 -0.58C-102.85 -0.81 -102.68 -1.08 -102.57 -1.38C-102.46 -1.68 -102.4 -1.99 -102.4 -2.3C-102.4 -2.69 -102.5 -3.05 -102.69 -3.39C-102.87 -3.73 -103.11 -4.04 -103.4 -4.34C-103.68 -4.64 -103.99 -4.92 -104.32 -5.2C-104.65 -5.47 -104.96 -5.74 -105.24 -6.01C-105.53 -6.28 -105.76 -6.55 -105.95 -6.82C-106.14 -7.1 -106.23 -7.39 -106.23 -7.69C-106.23 -7.91 -106.2 -8.1 -106.12 -8.26C-106.05 -8.42 -105.95 -8.55 -105.82 -8.66C-105.69 -8.77 -105.55 -8.85 -105.38 -8.91C-105.21 -8.96 -105.02 -8.99 -104.83 -8.99C-104.55 -8.99 -104.31 -8.94 -104.1 -8.86C-103.88 -8.77 -103.7 -8.65 -103.55 -8.52C-103.4 -8.38 -103.27 -8.23 -103.18 -8.07C-103.08 -7.91 -103.01 -7.76 -102.97 -7.62Z M-94.21 -7.64L-94.31 -9.18C-94.48 -9.27 -94.75 -9.38 -95.09 -9.49C-95.43 -9.59 -95.86 -9.65 -96.37 -9.65C-96.76 -9.65 -97.12 -9.59 -97.45 -9.47C-97.78 -9.35 -98.06 -9.19 -98.3 -8.98C-98.54 -8.76 -98.72 -8.51 -98.86 -8.21C-98.99 -7.91 -99.06 -7.58 -99.06 -7.22C-99.06 -6.78 -98.96 -6.39 -98.78 -6.04C-98.6 -5.7 -98.37 -5.39 -98.09 -5.1C-97.81 -4.81 -97.51 -4.54 -97.2 -4.29C-96.88 -4.03 -96.58 -3.78 -96.3 -3.53C-96.02 -3.27 -95.79 -3.01 -95.61 -2.73C-95.43 -2.46 -95.33 -2.16 -95.33 -1.83C-95.33 -1.42 -95.47 -1.09 -95.74 -0.83C-96.01 -0.58 -96.37 -0.45 -96.83 -0.45C-97.11 -0.45 -97.36 -0.5 -97.6 -0.6C-97.83 -0.69 -98.04 -0.83 -98.22 -1C-98.41 -1.17 -98.56 -1.37 -98.68 -1.61C-98.81 -1.86 -98.9 -2.12 -98.96 -2.41L-99.11 -2.41L-99.2 -0.65C-99.07 -0.56 -98.92 -0.46 -98.75 -0.36C-98.58 -0.26 -98.39 -0.16 -98.18 -0.08C-97.97 0 -97.73 0.07 -97.47 0.13C-97.22 0.19 -96.94 0.21 -96.64 0.21C-96.14 0.21 -95.71 0.14 -95.35 0C-94.99 -0.15 -94.69 -0.34 -94.46 -0.58C-94.23 -0.81 -94.05 -1.08 -93.94 -1.38C-93.83 -1.68 -93.78 -1.99 -93.78 -2.3C-93.78 -2.69 -93.87 -3.05 -94.06 -3.39C-94.25 -3.73 -94.48 -4.04 -94.77 -4.34C-95.05 -4.64 -95.36 -4.92 -95.69 -5.2C-96.02 -5.47 -96.33 -5.74 -96.62 -6.01C-96.9 -6.28 -97.14 -6.55 -97.32 -6.82C-97.51 -7.1 -97.61 -7.39 -97.61 -7.69C-97.61 -7.91 -97.57 -8.1 -97.5 -8.26C-97.42 -8.42 -97.32 -8.55 -97.2 -8.66C-97.07 -8.77 -96.92 -8.85 -96.75 -8.91C-96.58 -8.96 -96.4 -8.99 -96.21 -8.99C-95.93 -8.99 -95.68 -8.94 -95.47 -8.86C-95.26 -8.77 -95.07 -8.65 -94.92 -8.52C-94.77 -8.38 -94.65 -8.23 -94.55 -8.07C-94.46 -7.91 -94.39 -7.76 -94.34 -7.62Z M-85.62 0.17C-84.97 0.17 -84.42 0.11 -83.95 -0.01C-83.49 -0.13 -83.09 -0.28 -82.76 -0.45L-82.07 -2.11L-82.18 -2.16C-82.32 -1.93 -82.5 -1.71 -82.7 -1.51C-82.91 -1.31 -83.14 -1.13 -83.4 -0.98C-83.66 -0.83 -83.95 -0.72 -84.26 -0.64C-84.58 -0.55 -84.92 -0.51 -85.28 -0.51C-85.8 -0.51 -86.27 -0.61 -86.68 -0.81C-87.09 -1.01 -87.44 -1.29 -87.72 -1.66C-88.01 -2.02 -88.24 -2.47 -88.4 -2.99C-88.57 -3.51 -88.67 -4.09 -88.7 -4.73C-88.3 -4.74 -87.84 -4.75 -87.33 -4.76C-86.82 -4.77 -86.29 -4.77 -85.75 -4.77C-85 -4.77 -84.27 -4.77 -83.57 -4.76C-82.87 -4.75 -82.18 -4.74 -81.48 -4.73C-81.49 -5.52 -81.62 -6.22 -81.85 -6.83C-82.08 -7.45 -82.4 -7.96 -82.8 -8.38C-83.2 -8.8 -83.67 -9.12 -84.21 -9.34C-84.76 -9.56 -85.35 -9.67 -85.99 -9.67C-86.63 -9.67 -87.23 -9.54 -87.78 -9.3C-88.33 -9.05 -88.82 -8.71 -89.23 -8.27C-89.65 -7.83 -89.97 -7.31 -90.21 -6.71C-90.44 -6.12 -90.56 -5.47 -90.56 -4.77C-90.56 -3.98 -90.43 -3.27 -90.17 -2.66C-89.92 -2.04 -89.57 -1.53 -89.12 -1.11C-88.68 -0.69 -88.15 -0.37 -87.55 -0.16C-86.95 0.06 -86.31 0.17 -85.62 0.17ZM-86.86 -5.49L-87.82 -5.49C-88.13 -5.49 -88.43 -5.5 -88.7 -5.51C-88.68 -6.06 -88.6 -6.55 -88.46 -6.98C-88.33 -7.41 -88.15 -7.77 -87.92 -8.07C-87.7 -8.37 -87.44 -8.6 -87.14 -8.75C-86.84 -8.91 -86.51 -8.99 -86.15 -8.99C-85.76 -8.99 -85.39 -8.91 -85.07 -8.75C-84.74 -8.59 -84.45 -8.36 -84.21 -8.06C-83.97 -7.77 -83.77 -7.4 -83.62 -6.98C-83.46 -6.55 -83.36 -6.07 -83.3 -5.53C-83.81 -5.51 -84.38 -5.5 -85 -5.5C-85.62 -5.49 -86.24 -5.49 -86.86 -5.49Z M-73.39 -7.64L-73.48 -9.18C-73.66 -9.27 -73.92 -9.38 -74.27 -9.49C-74.61 -9.59 -75.04 -9.65 -75.55 -9.65C-75.94 -9.65 -76.3 -9.59 -76.63 -9.47C-76.95 -9.35 -77.24 -9.19 -77.48 -8.98C-77.71 -8.76 -77.9 -8.51 -78.03 -8.21C-78.16 -7.91 -78.23 -7.58 -78.23 -7.22C-78.23 -6.78 -78.14 -6.39 -77.96 -6.04C-77.78 -5.7 -77.54 -5.39 -77.27 -5.1C-76.99 -4.81 -76.69 -4.54 -76.37 -4.29C-76.05 -4.03 -75.75 -3.78 -75.48 -3.53C-75.2 -3.27 -74.97 -3.01 -74.78 -2.73C-74.6 -2.46 -74.51 -2.16 -74.51 -1.83C-74.51 -1.42 -74.65 -1.09 -74.91 -0.83C-75.18 -0.58 -75.55 -0.45 -76 -0.45C-76.28 -0.45 -76.54 -0.5 -76.77 -0.6C-77.01 -0.69 -77.22 -0.83 -77.4 -1C-77.58 -1.17 -77.74 -1.37 -77.86 -1.61C-77.98 -1.86 -78.08 -2.12 -78.14 -2.41L-78.29 -2.41L-78.38 -0.65C-78.25 -0.56 -78.1 -0.46 -77.93 -0.36C-77.76 -0.26 -77.57 -0.16 -77.35 -0.08C-77.14 0 -76.91 0.07 -76.65 0.13C-76.39 0.19 -76.12 0.21 -75.82 0.21C-75.32 0.21 -74.89 0.14 -74.52 0C-74.16 -0.15 -73.87 -0.34 -73.63 -0.58C-73.4 -0.81 -73.23 -1.08 -73.12 -1.38C-73.01 -1.68 -72.95 -1.99 -72.95 -2.3C-72.95 -2.69 -73.05 -3.05 -73.24 -3.39C-73.42 -3.73 -73.66 -4.04 -73.95 -4.34C-74.23 -4.64 -74.54 -4.92 -74.87 -5.2C-75.2 -5.47 -75.51 -5.74 -75.79 -6.01C-76.08 -6.28 -76.31 -6.55 -76.5 -6.82C-76.69 -7.1 -76.78 -7.39 -76.78 -7.69C-76.78 -7.91 -76.75 -8.1 -76.67 -8.26C-76.6 -8.42 -76.5 -8.55 -76.37 -8.66C-76.24 -8.77 -76.1 -8.85 -75.93 -8.91C-75.76 -8.96 -75.57 -8.99 -75.38 -8.99C-75.1 -8.99 -74.86 -8.94 -74.65 -8.86C-74.43 -8.77 -74.25 -8.65 -74.1 -8.52C-73.95 -8.38 -73.82 -8.23 -73.73 -8.07C-73.63 -7.91 -73.56 -7.76 -73.52 -7.62Z M-64.76 -7.64L-64.86 -9.18C-65.03 -9.27 -65.3 -9.38 -65.64 -9.49C-65.98 -9.59 -66.41 -9.65 -66.92 -9.65C-67.31 -9.65 -67.67 -9.59 -68 -9.47C-68.33 -9.35 -68.61 -9.19 -68.85 -8.98C-69.09 -8.76 -69.27 -8.51 -69.41 -8.21C-69.54 -7.91 -69.61 -7.58 -69.61 -7.22C-69.61 -6.78 -69.51 -6.39 -69.33 -6.04C-69.15 -5.7 -68.92 -5.39 -68.64 -5.1C-68.36 -4.81 -68.06 -4.54 -67.75 -4.29C-67.43 -4.03 -67.13 -3.78 -66.85 -3.53C-66.57 -3.27 -66.34 -3.01 -66.16 -2.73C-65.98 -2.46 -65.88 -2.16 -65.88 -1.83C-65.88 -1.42 -66.02 -1.09 -66.29 -0.83C-66.56 -0.58 -66.92 -0.45 -67.38 -0.45C-67.66 -0.45 -67.91 -0.5 -68.15 -0.6C-68.38 -0.69 -68.59 -0.83 -68.77 -1C-68.96 -1.17 -69.11 -1.37 -69.23 -1.61C-69.36 -1.86 -69.45 -2.12 -69.51 -2.41L-69.66 -2.41L-69.75 -0.65C-69.62 -0.56 -69.47 -0.46 -69.3 -0.36C-69.13 -0.26 -68.94 -0.16 -68.73 -0.08C-68.52 0 -68.28 0.07 -68.02 0.13C-67.77 0.19 -67.49 0.21 -67.19 0.21C-66.69 0.21 -66.26 0.14 -65.9 0C-65.54 -0.15 -65.24 -0.34 -65.01 -0.58C-64.78 -0.81 -64.6 -1.08 -64.49 -1.38C-64.38 -1.68 -64.33 -1.99 -64.33 -2.3C-64.33 -2.69 -64.42 -3.05 -64.61 -3.39C-64.8 -3.73 -65.03 -4.04 -65.32 -4.34C-65.6 -4.64 -65.91 -4.92 -66.24 -5.2C-66.57 -5.47 -66.88 -5.74 -67.17 -6.01C-67.45 -6.28 -67.69 -6.55 -67.87 -6.82C-68.06 -7.1 -68.16 -7.39 -68.16 -7.69C-68.16 -7.91 -68.12 -8.1 -68.05 -8.26C-67.97 -8.42 -67.87 -8.55 -67.75 -8.66C-67.62 -8.77 -67.47 -8.85 -67.3 -8.91C-67.13 -8.96 -66.95 -8.99 -66.76 -8.99C-66.48 -8.99 -66.23 -8.94 -66.02 -8.86C-65.81 -8.77 -65.62 -8.65 -65.47 -8.52C-65.32 -8.38 -65.2 -8.23 -65.1 -8.07C-65.01 -7.91 -64.94 -7.76 -64.89 -7.62Z M-61.11 -4.77C-61.11 -4.01 -60.98 -3.32 -60.71 -2.71C-60.44 -2.1 -60.08 -1.59 -59.62 -1.16C-59.17 -0.73 -58.63 -0.41 -58.02 -0.18C-57.41 0.05 -56.75 0.17 -56.06 0.17C-55.25 0.17 -54.52 0.03 -53.9 -0.24C-53.27 -0.51 -52.74 -0.87 -52.3 -1.32C-51.87 -1.77 -51.54 -2.29 -51.32 -2.88C-51.1 -3.46 -50.99 -4.08 -50.99 -4.71C-50.99 -5.47 -51.12 -6.16 -51.38 -6.77C-51.64 -7.38 -52 -7.9 -52.46 -8.33C-52.92 -8.76 -53.46 -9.09 -54.07 -9.32C-54.69 -9.55 -55.34 -9.67 -56.04 -9.67C-56.75 -9.67 -57.42 -9.54 -58.04 -9.3C-58.66 -9.05 -59.19 -8.71 -59.65 -8.27C-60.1 -7.83 -60.46 -7.31 -60.72 -6.71C-60.98 -6.12 -61.11 -5.47 -61.11 -4.77ZM-55.85 -0.51C-56.41 -0.51 -56.9 -0.63 -57.33 -0.87C-57.75 -1.11 -58.11 -1.44 -58.39 -1.86C-58.68 -2.28 -58.89 -2.78 -59.04 -3.36C-59.18 -3.93 -59.25 -4.56 -59.25 -5.22C-59.25 -5.82 -59.18 -6.35 -59.03 -6.81C-58.88 -7.28 -58.67 -7.68 -58.4 -8C-58.14 -8.32 -57.82 -8.56 -57.45 -8.73C-57.09 -8.9 -56.69 -8.99 -56.25 -8.99C-55.68 -8.99 -55.18 -8.87 -54.75 -8.64C-54.33 -8.4 -53.97 -8.08 -53.69 -7.66C-53.41 -7.24 -53.2 -6.75 -53.06 -6.17C-52.91 -5.6 -52.84 -4.98 -52.84 -4.31C-52.84 -3.72 -52.92 -3.19 -53.07 -2.72C-53.21 -2.25 -53.42 -1.85 -53.69 -1.52C-53.95 -1.19 -54.27 -0.94 -54.64 -0.77C-55.01 -0.6 -55.41 -0.51 -55.85 -0.51Z M-47.01 -5.87L-47.01 -3.63C-47.01 -3.1 -47.02 -2.64 -47.03 -2.25C-47.05 -1.86 -47.07 -1.52 -47.09 -1.23C-47.11 -0.95 -47.14 -0.71 -47.17 -0.52C-47.21 -0.33 -47.24 -0.17 -47.28 -0.04L-47.28 0L-45.14 0L-45.14 -0.04C-45.17 -0.17 -45.21 -0.33 -45.24 -0.52C-45.27 -0.71 -45.3 -0.95 -45.32 -1.23C-45.35 -1.52 -45.36 -1.86 -45.38 -2.25C-45.39 -2.64 -45.39 -3.1 -45.39 -3.63L-45.39 -6.02L-45.39 -6.69C-45.39 -6.9 -45.39 -7.09 -45.38 -7.27C-45.17 -7.45 -44.96 -7.61 -44.75 -7.77C-44.53 -7.93 -44.31 -8.07 -44.1 -8.19C-43.88 -8.31 -43.67 -8.4 -43.46 -8.47C-43.25 -8.54 -43.04 -8.57 -42.85 -8.57C-42.5 -8.57 -42.22 -8.49 -42.02 -8.33C-41.81 -8.16 -41.67 -7.94 -41.6 -7.67L-41.44 -7.64L-40.99 -9.41C-41.06 -9.44 -41.14 -9.47 -41.22 -9.5C-41.3 -9.54 -41.39 -9.57 -41.49 -9.6C-41.59 -9.63 -41.7 -9.65 -41.82 -9.66C-41.95 -9.68 -42.09 -9.69 -42.26 -9.69C-42.53 -9.69 -42.8 -9.64 -43.07 -9.56C-43.34 -9.47 -43.6 -9.35 -43.86 -9.21C-44.12 -9.07 -44.38 -8.91 -44.62 -8.72C-44.87 -8.54 -45.11 -8.35 -45.34 -8.15C-45.32 -8.48 -45.29 -8.74 -45.26 -8.94C-45.23 -9.15 -45.18 -9.32 -45.14 -9.46L-45.14 -9.5L-47.28 -9.5L-47.28 -9.46C-47.24 -9.33 -47.21 -9.17 -47.17 -8.98C-47.14 -8.79 -47.11 -8.55 -47.09 -8.27C-47.07 -7.98 -47.05 -7.64 -47.03 -7.25C-47.02 -6.86 -47.01 -6.4 -47.01 -5.87Z M-37.6 -5.87L-37.6 -3.63C-37.6 -3.1 -37.61 -2.64 -37.63 -2.25C-37.64 -1.86 -37.66 -1.52 -37.68 -1.23C-37.7 -0.95 -37.73 -0.71 -37.77 -0.52C-37.8 -0.33 -37.84 -0.17 -37.87 -0.04L-37.87 0L-35.73 0L-35.73 -0.04C-35.77 -0.17 -35.8 -0.33 -35.83 -0.52C-35.86 -0.71 -35.89 -0.95 -35.92 -1.23C-35.94 -1.52 -35.96 -1.86 -35.97 -2.25C-35.98 -2.64 -35.99 -3.1 -35.99 -3.63L-35.99 -5.87C-35.99 -6.4 -35.98 -6.86 -35.97 -7.25C-35.96 -7.64 -35.94 -7.98 -35.92 -8.27C-35.89 -8.55 -35.86 -8.79 -35.83 -8.98C-35.8 -9.17 -35.77 -9.33 -35.73 -9.46L-35.73 -9.5L-37.87 -9.5L-37.87 -9.46C-37.84 -9.33 -37.8 -9.17 -37.77 -8.98C-37.73 -8.79 -37.7 -8.55 -37.68 -8.27C-37.66 -7.98 -37.64 -7.64 -37.63 -7.25C-37.61 -6.86 -37.6 -6.4 -37.6 -5.87ZM-37.8 -12.31C-37.8 -12.17 -37.77 -12.04 -37.72 -11.92C-37.67 -11.8 -37.6 -11.69 -37.51 -11.6C-37.42 -11.51 -37.32 -11.44 -37.2 -11.39C-37.08 -11.34 -36.95 -11.31 -36.81 -11.31C-36.52 -11.31 -36.28 -11.4 -36.09 -11.6C-35.9 -11.79 -35.8 -12.03 -35.8 -12.31C-35.8 -12.45 -35.83 -12.58 -35.88 -12.7C-35.94 -12.82 -36.01 -12.92 -36.1 -13.01C-36.19 -13.1 -36.29 -13.17 -36.41 -13.22C-36.53 -13.28 -36.66 -13.3 -36.81 -13.3C-36.95 -13.3 -37.08 -13.28 -37.2 -13.22C-37.32 -13.17 -37.42 -13.1 -37.51 -13.01C-37.6 -12.92 -37.67 -12.82 -37.72 -12.7C-37.77 -12.58 -37.8 -12.45 -37.8 -12.31Z M-31.92 -2.74C-31.92 -1.81 -31.62 -1.09 -31.04 -0.59C-30.45 -0.09 -29.62 0.17 -28.54 0.17C-28.21 0.17 -27.91 0.14 -27.64 0.08C-27.36 0.02 -27.11 -0.06 -26.89 -0.15C-26.66 -0.25 -26.46 -0.36 -26.28 -0.47C-26.11 -0.59 -25.95 -0.71 -25.82 -0.82C-25.84 -0.64 -25.85 -0.49 -25.87 -0.37C-25.88 -0.25 -25.9 -0.14 -25.93 -0.04L-25.93 0L-23.88 0L-23.88 -0.04C-23.92 -0.17 -23.96 -0.33 -23.99 -0.52C-24.03 -0.71 -24.05 -0.95 -24.07 -1.23C-24.1 -1.52 -24.11 -1.86 -24.13 -2.25C-24.15 -2.64 -24.15 -3.1 -24.15 -3.63L-24.15 -6.65C-24.15 -7.07 -24.22 -7.47 -24.36 -7.83C-24.49 -8.2 -24.71 -8.52 -25 -8.8C-25.3 -9.07 -25.67 -9.29 -26.13 -9.45C-26.6 -9.61 -27.15 -9.69 -27.8 -9.69C-28.03 -9.69 -28.26 -9.68 -28.47 -9.66C-28.69 -9.65 -28.89 -9.62 -29.1 -9.58C-29.3 -9.55 -29.5 -9.5 -29.7 -9.44C-29.9 -9.38 -30.1 -9.31 -30.3 -9.21L-30.94 -7.9L-30.84 -7.85C-30.55 -8.08 -30.27 -8.27 -30.01 -8.41C-29.76 -8.56 -29.51 -8.68 -29.28 -8.77C-29.05 -8.85 -28.82 -8.92 -28.61 -8.95C-28.39 -8.99 -28.17 -9.01 -27.95 -9.01C-27.63 -9.01 -27.33 -8.96 -27.06 -8.86C-26.79 -8.77 -26.56 -8.62 -26.37 -8.43C-26.18 -8.23 -26.03 -7.99 -25.93 -7.69C-25.82 -7.39 -25.77 -7.04 -25.77 -6.63L-25.77 -6.16C-26.14 -6.15 -26.55 -6.13 -26.99 -6.1C-27.44 -6.07 -27.89 -6 -28.35 -5.91C-28.8 -5.82 -29.25 -5.7 -29.67 -5.54C-30.1 -5.39 -30.48 -5.18 -30.81 -4.93C-31.15 -4.67 -31.42 -4.37 -31.62 -4.01C-31.82 -3.65 -31.92 -3.23 -31.92 -2.74ZM-25.77 -5.44L-25.77 -3.63L-25.77 -2.65C-25.77 -2.36 -25.77 -2.1 -25.79 -1.86C-25.85 -1.72 -25.95 -1.58 -26.08 -1.42C-26.21 -1.27 -26.37 -1.13 -26.56 -1.01C-26.75 -0.88 -26.97 -0.77 -27.21 -0.69C-27.45 -0.61 -27.73 -0.57 -28.02 -0.57C-28.67 -0.57 -29.17 -0.76 -29.53 -1.14C-29.9 -1.52 -30.08 -2.08 -30.08 -2.81C-30.08 -3.38 -29.96 -3.84 -29.72 -4.18C-29.49 -4.52 -29.17 -4.79 -28.77 -4.97C-28.37 -5.16 -27.91 -5.28 -27.39 -5.34C-26.87 -5.4 -26.33 -5.43 -25.77 -5.44Z M-7.7 0.17C-7.05 0.17 -6.49 0.11 -6.03 -0.01C-5.57 -0.13 -5.17 -0.28 -4.83 -0.45L-4.15 -2.11L-4.26 -2.16C-4.4 -1.93 -4.57 -1.71 -4.78 -1.51C-4.98 -1.31 -5.21 -1.13 -5.47 -0.98C-5.73 -0.83 -6.02 -0.72 -6.34 -0.64C-6.66 -0.55 -7 -0.51 -7.36 -0.51C-7.88 -0.51 -8.34 -0.61 -8.75 -0.81C-9.16 -1.01 -9.51 -1.29 -9.8 -1.66C-10.09 -2.02 -10.31 -2.47 -10.48 -2.99C-10.64 -3.51 -10.74 -4.09 -10.78 -4.73C-10.37 -4.74 -9.91 -4.75 -9.4 -4.76C-8.89 -4.77 -8.37 -4.77 -7.83 -4.77C-7.07 -4.77 -6.35 -4.77 -5.65 -4.76C-4.95 -4.75 -4.25 -4.74 -3.55 -4.73C-3.57 -5.52 -3.7 -6.22 -3.93 -6.83C-4.16 -7.45 -4.48 -7.96 -4.87 -8.38C-5.27 -8.8 -5.74 -9.12 -6.29 -9.34C-6.83 -9.56 -7.42 -9.67 -8.06 -9.67C-8.7 -9.67 -9.3 -9.54 -9.86 -9.3C-10.41 -9.05 -10.89 -8.71 -11.31 -8.27C-11.72 -7.83 -12.05 -7.31 -12.28 -6.71C-12.52 -6.12 -12.63 -5.47 -12.63 -4.77C-12.63 -3.98 -12.51 -3.27 -12.25 -2.66C-11.99 -2.04 -11.64 -1.53 -11.2 -1.11C-10.75 -0.69 -10.23 -0.37 -9.63 -0.16C-9.03 0.06 -8.39 0.17 -7.7 0.17ZM-8.93 -5.49L-9.9 -5.49C-10.21 -5.49 -10.5 -5.5 -10.78 -5.51C-10.75 -6.06 -10.67 -6.55 -10.54 -6.98C-10.4 -7.41 -10.22 -7.77 -10 -8.07C-9.78 -8.37 -9.52 -8.6 -9.22 -8.75C-8.92 -8.91 -8.59 -8.99 -8.23 -8.99C-7.83 -8.99 -7.47 -8.91 -7.14 -8.75C-6.81 -8.59 -6.53 -8.36 -6.29 -8.06C-6.05 -7.77 -5.85 -7.4 -5.7 -6.98C-5.54 -6.55 -5.44 -6.07 -5.38 -5.53C-5.89 -5.51 -6.45 -5.5 -7.07 -5.5C-7.69 -5.49 -8.31 -5.49 -8.93 -5.49Z M18.6 -11.26L17.97 -12.98C16.95 -13.34 15.84 -13.53 14.65 -13.53C13.88 -13.53 13.17 -13.44 12.51 -13.26C11.85 -13.09 11.25 -12.84 10.7 -12.52C10.15 -12.21 9.66 -11.84 9.24 -11.41C8.81 -10.98 8.45 -10.51 8.16 -9.99C7.87 -9.48 7.65 -8.94 7.5 -8.37C7.35 -7.8 7.27 -7.22 7.27 -6.63C7.27 -5.59 7.46 -4.65 7.84 -3.8C8.22 -2.95 8.75 -2.22 9.44 -1.61C10.12 -1.01 10.94 -0.54 11.89 -0.21C12.84 0.12 13.88 0.29 15.03 0.29C15.6 0.29 16.16 0.24 16.72 0.14C17.28 0.05 17.79 -0.09 18.26 -0.27L19 -2.16L18.9 -2.23C18.66 -1.96 18.4 -1.72 18.11 -1.52C17.82 -1.31 17.52 -1.13 17.19 -0.99C16.87 -0.84 16.53 -0.73 16.18 -0.66C15.82 -0.58 15.47 -0.55 15.12 -0.55C14.14 -0.55 13.29 -0.72 12.55 -1.06C11.82 -1.41 11.21 -1.88 10.72 -2.48C10.23 -3.08 9.87 -3.79 9.62 -4.61C9.37 -5.43 9.25 -6.31 9.25 -7.25C9.25 -8.11 9.38 -8.88 9.64 -9.56C9.9 -10.23 10.26 -10.8 10.73 -11.26C11.19 -11.73 11.75 -12.08 12.4 -12.32C13.05 -12.57 13.76 -12.69 14.54 -12.69C15.35 -12.69 16.1 -12.56 16.78 -12.29C17.45 -12.03 18.03 -11.67 18.51 -11.23Z M21.92 -4.77C21.92 -4.01 22.05 -3.32 22.32 -2.71C22.58 -2.1 22.94 -1.59 23.4 -1.16C23.86 -0.73 24.39 -0.41 25.01 -0.18C25.62 0.05 26.27 0.17 26.96 0.17C27.78 0.17 28.5 0.03 29.13 -0.24C29.76 -0.51 30.29 -0.87 30.72 -1.32C31.15 -1.77 31.48 -2.29 31.71 -2.88C31.93 -3.46 32.04 -4.08 32.04 -4.71C32.04 -5.47 31.91 -6.16 31.65 -6.77C31.38 -7.38 31.02 -7.9 30.56 -8.33C30.11 -8.76 29.57 -9.09 28.95 -9.32C28.34 -9.55 27.68 -9.67 26.98 -9.67C26.27 -9.67 25.61 -9.54 24.99 -9.3C24.37 -9.05 23.83 -8.71 23.38 -8.27C22.92 -7.83 22.57 -7.31 22.31 -6.71C22.05 -6.12 21.92 -5.47 21.92 -4.77ZM27.18 -0.51C26.62 -0.51 26.12 -0.63 25.7 -0.87C25.27 -1.11 24.92 -1.44 24.64 -1.86C24.35 -2.28 24.14 -2.78 23.99 -3.36C23.85 -3.93 23.77 -4.56 23.77 -5.22C23.77 -5.82 23.85 -6.35 24 -6.81C24.14 -7.28 24.35 -7.68 24.62 -8C24.89 -8.32 25.21 -8.56 25.57 -8.73C25.94 -8.9 26.34 -8.99 26.78 -8.99C27.35 -8.99 27.85 -8.87 28.27 -8.64C28.7 -8.4 29.05 -8.08 29.33 -7.66C29.62 -7.24 29.83 -6.75 29.97 -6.17C30.11 -5.6 30.18 -4.98 30.18 -4.31C30.18 -3.72 30.11 -3.19 29.96 -2.72C29.81 -2.25 29.61 -1.85 29.34 -1.52C29.07 -1.19 28.76 -0.94 28.39 -0.77C28.02 -0.6 27.62 -0.51 27.18 -0.51Z M42.4 -6.25L42.4 -3.63C42.4 -3.1 42.39 -2.64 42.38 -2.25C42.36 -1.86 42.34 -1.52 42.32 -1.23C42.3 -0.95 42.27 -0.71 42.24 -0.52C42.2 -0.33 42.17 -0.17 42.13 -0.04L42.13 0L44.27 0L44.27 -0.04C44.24 -0.17 44.2 -0.33 44.17 -0.52C44.14 -0.71 44.11 -0.95 44.09 -1.23C44.06 -1.52 44.05 -1.86 44.03 -2.25C44.02 -2.64 44.01 -3.1 44.01 -3.63L44.01 -6.78C44.01 -7.14 43.97 -7.49 43.87 -7.84C43.77 -8.19 43.62 -8.5 43.41 -8.78C43.19 -9.05 42.92 -9.27 42.58 -9.44C42.24 -9.6 41.83 -9.69 41.35 -9.69C41.04 -9.69 40.71 -9.63 40.39 -9.53C40.06 -9.43 39.74 -9.3 39.42 -9.13C39.11 -8.97 38.8 -8.78 38.51 -8.57C38.21 -8.36 37.94 -8.15 37.69 -7.94C37.72 -8.32 37.75 -8.64 37.78 -8.87C37.8 -9.11 37.84 -9.31 37.89 -9.46L37.89 -9.5L35.75 -9.5L35.75 -9.46C35.79 -9.33 35.82 -9.17 35.86 -8.98C35.89 -8.79 35.92 -8.55 35.94 -8.27C35.96 -7.98 35.98 -7.64 35.99 -7.25C36.01 -6.86 36.02 -6.4 36.02 -5.87L36.02 -3.63C36.02 -3.1 36.01 -2.64 35.99 -2.25C35.98 -1.86 35.96 -1.52 35.94 -1.23C35.92 -0.95 35.89 -0.71 35.86 -0.52C35.82 -0.33 35.79 -0.17 35.75 -0.04L35.75 0L37.89 0L37.89 -0.04C37.85 -0.17 37.82 -0.33 37.79 -0.52C37.76 -0.71 37.73 -0.95 37.71 -1.23C37.68 -1.52 37.66 -1.86 37.65 -2.25C37.64 -2.64 37.63 -3.1 37.63 -3.63L37.63 -5.87L37.65 -7.09C37.88 -7.3 38.12 -7.5 38.38 -7.68C38.64 -7.87 38.9 -8.03 39.16 -8.17C39.42 -8.31 39.68 -8.42 39.92 -8.5C40.17 -8.59 40.39 -8.63 40.59 -8.63C41.14 -8.63 41.58 -8.44 41.91 -8.05C42.24 -7.67 42.4 -7.07 42.4 -6.25Z M52.9 -7.64L52.81 -9.18C52.63 -9.27 52.37 -9.38 52.02 -9.49C51.68 -9.59 51.25 -9.65 50.74 -9.65C50.35 -9.65 49.99 -9.59 49.66 -9.47C49.33 -9.35 49.05 -9.19 48.81 -8.98C48.58 -8.76 48.39 -8.51 48.26 -8.21C48.12 -7.91 48.06 -7.58 48.06 -7.22C48.06 -6.78 48.15 -6.39 48.33 -6.04C48.51 -5.7 48.74 -5.39 49.02 -5.1C49.3 -4.81 49.6 -4.54 49.92 -4.29C50.24 -4.03 50.53 -3.78 50.81 -3.53C51.09 -3.27 51.32 -3.01 51.5 -2.73C51.69 -2.46 51.78 -2.16 51.78 -1.83C51.78 -1.42 51.64 -1.09 51.37 -0.83C51.11 -0.58 50.74 -0.45 50.28 -0.45C50.01 -0.45 49.75 -0.5 49.51 -0.6C49.28 -0.69 49.07 -0.83 48.89 -1C48.71 -1.17 48.55 -1.37 48.43 -1.61C48.3 -1.86 48.21 -2.12 48.15 -2.41L48 -2.41L47.91 -0.65C48.04 -0.56 48.19 -0.46 48.36 -0.36C48.53 -0.26 48.72 -0.16 48.93 -0.08C49.15 0 49.38 0.07 49.64 0.13C49.9 0.19 50.17 0.21 50.47 0.21C50.97 0.21 51.4 0.14 51.76 0C52.13 -0.15 52.42 -0.34 52.65 -0.58C52.89 -0.81 53.06 -1.08 53.17 -1.38C53.28 -1.68 53.34 -1.99 53.34 -2.3C53.34 -2.69 53.24 -3.05 53.05 -3.39C52.86 -3.73 52.63 -4.04 52.34 -4.34C52.06 -4.64 51.75 -4.92 51.42 -5.2C51.09 -5.47 50.78 -5.74 50.5 -6.01C50.21 -6.28 49.98 -6.55 49.79 -6.82C49.6 -7.1 49.5 -7.39 49.5 -7.69C49.5 -7.91 49.54 -8.1 49.62 -8.26C49.69 -8.42 49.79 -8.55 49.92 -8.66C50.04 -8.77 50.19 -8.85 50.36 -8.91C50.53 -8.96 50.71 -8.99 50.91 -8.99C51.18 -8.99 51.43 -8.94 51.64 -8.86C51.86 -8.77 52.04 -8.65 52.19 -8.52C52.34 -8.38 52.47 -8.23 52.56 -8.07C52.66 -7.91 52.73 -7.76 52.77 -7.62Z M58.89 -3.25L58.89 -5.87C58.89 -6.4 58.9 -6.86 58.91 -7.25C58.92 -7.64 58.94 -7.98 58.97 -8.27C58.99 -8.55 59.02 -8.79 59.05 -8.98C59.08 -9.17 59.11 -9.33 59.15 -9.46L59.15 -9.5L57.01 -9.5L57.01 -9.46C57.05 -9.33 57.08 -9.17 57.11 -8.98C57.14 -8.79 57.17 -8.55 57.19 -8.27C57.22 -7.98 57.24 -7.64 57.25 -7.25C57.26 -6.86 57.27 -6.4 57.27 -5.87L57.27 -2.72C57.27 -2.35 57.32 -2 57.41 -1.65C57.51 -1.31 57.66 -1 57.88 -0.72C58.09 -0.45 58.36 -0.23 58.7 -0.06C59.04 0.1 59.45 0.19 59.93 0.19C60.25 0.19 60.57 0.13 60.89 0.03C61.22 -0.07 61.54 -0.2 61.86 -0.37C62.17 -0.54 62.48 -0.73 62.77 -0.94C63.07 -1.15 63.34 -1.36 63.6 -1.58C63.58 -1.19 63.55 -0.87 63.51 -0.63C63.47 -0.39 63.43 -0.19 63.39 -0.04L63.39 0L65.53 0L65.53 -0.04C65.5 -0.17 65.46 -0.33 65.43 -0.52C65.4 -0.71 65.37 -0.95 65.35 -1.23C65.32 -1.52 65.31 -1.86 65.29 -2.25C65.28 -2.64 65.27 -3.1 65.27 -3.63L65.27 -5.87C65.27 -6.4 65.28 -6.86 65.29 -7.25C65.31 -7.64 65.32 -7.98 65.35 -8.27C65.37 -8.55 65.4 -8.79 65.43 -8.98C65.46 -9.17 65.5 -9.33 65.53 -9.46L65.53 -9.5L63.39 -9.5L63.39 -9.46C63.43 -9.33 63.46 -9.17 63.5 -8.98C63.53 -8.79 63.56 -8.55 63.58 -8.27C63.6 -7.98 63.62 -7.64 63.64 -7.25C63.65 -6.86 63.66 -6.4 63.66 -5.87L63.66 -3.63L63.66 -2.98C63.66 -2.78 63.65 -2.59 63.64 -2.41C63.42 -2.2 63.18 -2 62.91 -1.82C62.65 -1.63 62.39 -1.47 62.12 -1.33C61.86 -1.19 61.61 -1.08 61.36 -1C61.11 -0.91 60.89 -0.87 60.69 -0.87C60.14 -0.87 59.7 -1.06 59.38 -1.45C59.05 -1.83 58.89 -2.43 58.89 -3.25Z M70.08 -10.24L70.08 -3.63C70.08 -3.1 70.07 -2.64 70.06 -2.25C70.04 -1.86 70.02 -1.52 70 -1.23C69.98 -0.95 69.95 -0.71 69.92 -0.52C69.88 -0.33 69.85 -0.17 69.81 -0.04L69.81 0L71.95 0L71.95 -0.04C71.92 -0.17 71.88 -0.33 71.85 -0.52C71.82 -0.71 71.79 -0.95 71.77 -1.23C71.74 -1.52 71.72 -1.86 71.71 -2.25C71.7 -2.64 71.69 -3.1 71.69 -3.63L71.69 -10.24C71.69 -10.77 71.7 -11.23 71.71 -11.62C71.72 -12.01 71.74 -12.35 71.77 -12.64C71.79 -12.92 71.82 -13.16 71.85 -13.35C71.88 -13.54 71.92 -13.7 71.95 -13.83L71.95 -13.87L69.81 -13.87L69.81 -13.83C69.85 -13.7 69.88 -13.54 69.92 -13.35C69.95 -13.16 69.98 -12.92 70 -12.64C70.02 -12.35 70.04 -12.01 70.06 -11.62C70.07 -11.23 70.08 -10.77 70.08 -10.24Z M79.86 -0.55C79.68 -0.55 79.51 -0.57 79.34 -0.62C79.17 -0.67 79.02 -0.76 78.89 -0.9C78.75 -1.04 78.64 -1.22 78.56 -1.46C78.48 -1.7 78.44 -2.01 78.44 -2.39L78.44 -8.78C78.84 -8.77 79.24 -8.76 79.62 -8.76C80.01 -8.75 80.35 -8.74 80.64 -8.73C80.99 -8.72 81.32 -8.71 81.64 -8.7L81.8 -9.65C81.73 -9.64 81.59 -9.62 81.38 -9.61C81.17 -9.59 80.91 -9.58 80.6 -9.56C80.3 -9.54 79.96 -9.53 79.58 -9.52C79.21 -9.51 78.82 -9.51 78.44 -9.5C78.44 -9.95 78.45 -10.34 78.47 -10.67C78.48 -11.01 78.5 -11.3 78.52 -11.55C78.55 -11.8 78.57 -12.01 78.6 -12.18C78.63 -12.35 78.67 -12.5 78.7 -12.62L78.7 -12.65L76.56 -12.65L76.56 -12.62C76.59 -12.5 76.62 -12.35 76.65 -12.18C76.68 -12.01 76.71 -11.8 76.73 -11.55C76.75 -11.3 76.77 -11 76.79 -10.66C76.8 -10.33 76.81 -9.94 76.82 -9.5C76.51 -9.5 76.21 -9.5 75.95 -9.51C75.68 -9.52 75.45 -9.52 75.26 -9.54L75.26 -8.72L76.82 -8.78L76.82 -2.59C76.82 -1.64 77.05 -0.94 77.51 -0.49C77.97 -0.04 78.62 0.19 79.45 0.19C79.72 0.19 79.97 0.17 80.17 0.13C80.37 0.1 80.55 0.06 80.7 0.01C80.86 -0.03 80.99 -0.08 81.09 -0.13C81.2 -0.19 81.29 -0.23 81.37 -0.27L81.97 -1.76L81.88 -1.81C81.74 -1.64 81.59 -1.48 81.44 -1.33C81.28 -1.18 81.11 -1.05 80.94 -0.93C80.77 -0.81 80.6 -0.72 80.42 -0.65C80.23 -0.58 80.05 -0.55 79.86 -0.55Z M84.92 -4.77C84.92 -4.01 85.05 -3.32 85.32 -2.71C85.58 -2.1 85.95 -1.59 86.4 -1.16C86.86 -0.73 87.4 -0.41 88.01 -0.18C88.62 0.05 89.27 0.17 89.97 0.17C90.78 0.17 91.5 0.03 92.13 -0.24C92.76 -0.51 93.29 -0.87 93.72 -1.32C94.16 -1.77 94.48 -2.29 94.71 -2.88C94.93 -3.46 95.04 -4.08 95.04 -4.71C95.04 -5.47 94.91 -6.16 94.65 -6.77C94.38 -7.38 94.02 -7.9 93.56 -8.33C93.11 -8.76 92.57 -9.09 91.96 -9.32C91.34 -9.55 90.68 -9.67 89.98 -9.67C89.27 -9.67 88.61 -9.54 87.99 -9.3C87.37 -9.05 86.83 -8.71 86.38 -8.27C85.92 -7.83 85.57 -7.31 85.31 -6.71C85.05 -6.12 84.92 -5.47 84.92 -4.77ZM90.18 -0.51C89.62 -0.51 89.12 -0.63 88.7 -0.87C88.28 -1.11 87.92 -1.44 87.64 -1.86C87.35 -2.28 87.14 -2.78 86.99 -3.36C86.85 -3.93 86.77 -4.56 86.77 -5.22C86.77 -5.82 86.85 -6.35 87 -6.81C87.14 -7.28 87.35 -7.68 87.62 -8C87.89 -8.32 88.21 -8.56 88.57 -8.73C88.94 -8.9 89.34 -8.99 89.78 -8.99C90.35 -8.99 90.85 -8.87 91.27 -8.64C91.7 -8.4 92.05 -8.08 92.34 -7.66C92.62 -7.24 92.83 -6.75 92.97 -6.17C93.11 -5.6 93.18 -4.98 93.18 -4.31C93.18 -3.72 93.11 -3.19 92.96 -2.72C92.81 -2.25 92.61 -1.85 92.34 -1.52C92.07 -1.19 91.76 -0.94 91.39 -0.77C91.02 -0.6 90.62 -0.51 90.18 -0.51Z M99.02 -5.87L99.02 -3.63C99.02 -3.1 99.01 -2.64 98.99 -2.25C98.98 -1.86 98.96 -1.52 98.94 -1.23C98.92 -0.95 98.89 -0.71 98.86 -0.52C98.82 -0.33 98.79 -0.17 98.75 -0.04L98.75 0L100.89 0L100.89 -0.04C100.85 -0.17 100.82 -0.33 100.79 -0.52C100.76 -0.71 100.73 -0.95 100.71 -1.23C100.68 -1.52 100.66 -1.86 100.65 -2.25C100.64 -2.64 100.63 -3.1 100.63 -3.63L100.63 -6.02L100.63 -6.69C100.63 -6.9 100.64 -7.09 100.65 -7.27C100.85 -7.45 101.07 -7.61 101.28 -7.77C101.5 -7.93 101.71 -8.07 101.93 -8.19C102.15 -8.31 102.36 -8.4 102.57 -8.47C102.78 -8.54 102.98 -8.57 103.17 -8.57C103.53 -8.57 103.81 -8.49 104.01 -8.33C104.21 -8.16 104.35 -7.94 104.43 -7.67L104.58 -7.64L105.04 -9.41C104.96 -9.44 104.89 -9.47 104.81 -9.5C104.73 -9.54 104.64 -9.57 104.54 -9.6C104.44 -9.63 104.33 -9.65 104.2 -9.66C104.08 -9.68 103.94 -9.69 103.77 -9.69C103.5 -9.69 103.23 -9.64 102.96 -9.56C102.69 -9.47 102.42 -9.35 102.16 -9.21C101.9 -9.07 101.65 -8.91 101.4 -8.72C101.15 -8.54 100.92 -8.35 100.69 -8.15C100.71 -8.48 100.73 -8.74 100.77 -8.94C100.8 -9.15 100.84 -9.32 100.89 -9.46L100.89 -9.5L98.75 -9.5L98.75 -9.46C98.79 -9.33 98.82 -9.17 98.86 -8.98C98.89 -8.79 98.92 -8.55 98.94 -8.27C98.96 -7.98 98.98 -7.64 98.99 -7.25C99.01 -6.86 99.02 -6.4 99.02 -5.87Z M108.42 -5.87L108.42 -3.63C108.42 -3.1 108.42 -2.64 108.4 -2.25C108.38 -1.86 108.37 -1.52 108.34 -1.23C108.32 -0.95 108.3 -0.71 108.26 -0.52C108.23 -0.33 108.19 -0.17 108.15 -0.04L108.15 0L110.3 0L110.3 -0.04C110.26 -0.17 110.23 -0.33 110.2 -0.52C110.16 -0.71 110.14 -0.95 110.11 -1.23C110.09 -1.52 110.07 -1.86 110.06 -2.25C110.04 -2.64 110.04 -3.1 110.04 -3.63L110.04 -5.87C110.04 -6.4 110.04 -6.86 110.06 -7.25C110.07 -7.64 110.09 -7.98 110.11 -8.27C110.14 -8.55 110.16 -8.79 110.2 -8.98C110.23 -9.17 110.26 -9.33 110.3 -9.46L110.3 -9.5L108.15 -9.5L108.15 -9.46C108.19 -9.33 108.23 -9.17 108.26 -8.98C108.3 -8.79 108.32 -8.55 108.34 -8.27C108.37 -7.98 108.38 -7.64 108.4 -7.25C108.42 -6.86 108.42 -6.4 108.42 -5.87ZM108.23 -12.31C108.23 -12.17 108.25 -12.04 108.31 -11.92C108.36 -11.8 108.43 -11.69 108.52 -11.6C108.6 -11.51 108.71 -11.44 108.83 -11.39C108.95 -11.34 109.08 -11.31 109.22 -11.31C109.51 -11.31 109.74 -11.4 109.94 -11.6C110.13 -11.79 110.22 -12.03 110.22 -12.31C110.22 -12.45 110.2 -12.58 110.14 -12.7C110.09 -12.82 110.02 -12.92 109.93 -13.01C109.84 -13.1 109.74 -13.17 109.62 -13.22C109.49 -13.28 109.36 -13.3 109.22 -13.3C109.08 -13.3 108.95 -13.28 108.83 -13.22C108.71 -13.17 108.6 -13.1 108.52 -13.01C108.43 -12.92 108.36 -12.82 108.31 -12.7C108.25 -12.58 108.23 -12.45 108.23 -12.31Z M114.11 -2.74C114.11 -1.81 114.4 -1.09 114.99 -0.59C115.58 -0.09 116.41 0.17 117.49 0.17C117.81 0.17 118.11 0.14 118.39 0.08C118.67 0.02 118.92 -0.06 119.14 -0.15C119.37 -0.25 119.57 -0.36 119.74 -0.47C119.92 -0.59 120.07 -0.71 120.2 -0.82C120.19 -0.64 120.18 -0.49 120.16 -0.37C120.15 -0.25 120.12 -0.14 120.09 -0.04L120.09 0L122.14 0L122.14 -0.04C122.11 -0.17 122.07 -0.33 122.04 -0.52C122 -0.71 121.97 -0.95 121.95 -1.23C121.93 -1.52 121.91 -1.86 121.9 -2.25C121.88 -2.64 121.87 -3.1 121.87 -3.63L121.87 -6.65C121.87 -7.07 121.81 -7.47 121.67 -7.83C121.53 -8.2 121.32 -8.52 121.02 -8.8C120.73 -9.07 120.35 -9.29 119.89 -9.45C119.43 -9.61 118.88 -9.69 118.23 -9.69C117.99 -9.69 117.77 -9.68 117.56 -9.66C117.34 -9.65 117.13 -9.62 116.93 -9.58C116.72 -9.55 116.52 -9.5 116.33 -9.44C116.13 -9.38 115.93 -9.31 115.72 -9.21L115.09 -7.9L115.18 -7.85C115.48 -8.08 115.76 -8.27 116.02 -8.41C116.27 -8.56 116.52 -8.68 116.75 -8.77C116.98 -8.85 117.2 -8.92 117.42 -8.95C117.64 -8.99 117.86 -9.01 118.08 -9.01C118.4 -9.01 118.7 -8.96 118.97 -8.86C119.23 -8.77 119.46 -8.62 119.66 -8.43C119.85 -8.23 120 -7.99 120.1 -7.69C120.21 -7.39 120.26 -7.04 120.26 -6.63L120.26 -6.16C119.89 -6.15 119.48 -6.13 119.03 -6.1C118.59 -6.07 118.14 -6 117.68 -5.91C117.22 -5.82 116.78 -5.7 116.35 -5.54C115.93 -5.39 115.55 -5.18 115.21 -4.93C114.88 -4.67 114.61 -4.37 114.41 -4.01C114.21 -3.65 114.11 -3.23 114.11 -2.74ZM120.26 -5.44L120.26 -3.63L120.26 -2.65C120.26 -2.36 120.25 -2.1 120.24 -1.86C120.17 -1.72 120.07 -1.58 119.94 -1.42C119.81 -1.27 119.65 -1.13 119.47 -1.01C119.28 -0.88 119.06 -0.77 118.82 -0.69C118.57 -0.61 118.3 -0.57 118.01 -0.57C117.36 -0.57 116.86 -0.76 116.49 -1.14C116.13 -1.52 115.95 -2.08 115.95 -2.81C115.95 -3.38 116.06 -3.84 116.3 -4.18C116.54 -4.52 116.86 -4.79 117.26 -4.97C117.66 -5.16 118.12 -5.28 118.64 -5.34C119.16 -5.4 119.7 -5.43 120.26 -5.44Z"></path></g></g></svg>